HIERARCHY
ROOT root
{
	OFFSET 0.000000 0.000000 0.000000
	CHANNELS 6 Xposition Yposition Zposition Zrotation Yrotation Xrotation
	JOINT lhip
	{
		OFFSET 0.058581 -0.082280 -0.017664
		CHANNELS 3 Zrotation Yrotation Xrotation
		JOINT lknee
		{
			OFFSET 0.043451 -0.386469 0.008037
			CHANNELS 3 Zrotation Yrotation Xrotation
			JOINT lankle
			{
				OFFSET -0.014790 -0.426874 -0.037428
				CHANNELS 3 Zrotation Yrotation Xrotation
				JOINT ltoe
				{
					OFFSET 0.041054 -0.060286 0.122042
					CHANNELS 3 Zrotation Yrotation Xrotation
					End Site
					{
						OFFSET 0.000000 0.000000 0.000000
					}
				}
			}
		}
	}
	JOINT rhip
	{
		OFFSET -0.060310 -0.090513 -0.013543
		CHANNELS 3 Zrotation Yrotation Xrotation
		JOINT rknee
		{
			OFFSET -0.043257 -0.383688 -0.004843
			CHANNELS 3 Zrotation Yrotation Xrotation
			JOINT rankle
			{
				OFFSET 0.019056 -0.420046 -0.034562
				CHANNELS 3 Zrotation Yrotation Xrotation
				JOINT rtoe
				{
					OFFSET -0.034840 -0.062106 0.130323
					CHANNELS 3 Zrotation Yrotation Xrotation
					End Site
					{
						OFFSET 0.000000 0.000000 0.000000
					}
				}
			}
		}
	}
	JOINT lowerback
	{
		OFFSET 0.004439 0.124404 -0.038385
		CHANNELS 3 Zrotation Yrotation Xrotation
		JOINT upperback
		{
			OFFSET 0.004488 0.137956 0.026820
			CHANNELS 3 Zrotation Yrotation Xrotation
			JOINT chest
			{
				OFFSET -0.002265 0.056032 0.002855
				CHANNELS 3 Zrotation Yrotation Xrotation
				JOINT lowerneck
				{
					OFFSET -0.013390 0.211636 -0.033468
					CHANNELS 3 Zrotation Yrotation Xrotation
					JOINT upperneck
					{
						OFFSET 0.010113 0.088937 0.050410
						CHANNELS 3 Zrotation Yrotation Xrotation
						End Site
						{
							OFFSET 0.000000 0.000000 0.000000
						}
					}
				}
				JOINT lclavicle
				{
					OFFSET 0.071702 0.114000 -0.018898
					CHANNELS 3 Zrotation Yrotation Xrotation
					JOINT lshoulder
					{
						OFFSET 0.122921 0.045205 -0.019046
						CHANNELS 3 Zrotation Yrotation Xrotation
						JOINT lelbow
						{
							OFFSET 0.255332 -0.015649 -0.022946
							CHANNELS 3 Zrotation Yrotation Xrotation
							JOINT lwrist
							{
								OFFSET 0.265709 0.012698 -0.007375
								CHANNELS 3 Zrotation Yrotation Xrotation
								End Site
								{
									OFFSET 0.000000 0.000000 0.000000
								}
							}
						}
					}
				}
				JOINT rclavicle
				{
					OFFSET -0.082954 0.112472 -0.023707
					CHANNELS 3 Zrotation Yrotation Xrotation
					JOINT rshoulder
					{
						OFFSET -0.113228 0.046853 -0.008472
						CHANNELS 3 Zrotation Yrotation Xrotation
						JOINT relbow
						{
							OFFSET -0.260127 -0.014369 -0.031269
							CHANNELS 3 Zrotation Yrotation Xrotation
							JOINT rwrist
							{
								OFFSET -0.269108 0.006794 -0.006027
								CHANNELS 3 Zrotation Yrotation Xrotation
								End Site
								{
									OFFSET 0.000000 0.000000 0.000000
								}
							}
						}
					}
				}
			}
		}
	}
}
MOTION
Frames: 8
Frame Time: 0.033333
-0.098264 0.283349 1.289895 91.842034 1.383050 92.378125 6.698609 -0.139575 -20.933069 0.661763 8.968349 71.838942 -2.427871 13.355417 14.546091 0.000000 -0.000000 0.000000 -2.225474 -0.977728 -20.962229 -3.920890 -8.740222 91.153376 0.304817 -5.320630 11.785589 0.000000 -0.000000 0.000000 -4.522231 2.055515 13.184910 5.026083 -3.480499 0.225589 1.536242 -0.735413 -1.447894 -2.692912 -1.405646 14.621218 4.848537 -0.280711 -4.056115 -3.881157 -4.092696 9.572330 -58.011806 4.047108 -1.411394 -4.666192 -28.034089 13.625956 -10.827590 -6.260489 -17.000652 5.933194 4.725121 2.005355 63.254972 2.030654 7.603602 -14.106295 39.688811 9.634396 12.662774 -0.610957 -4.574108 
-0.061761 0.284743 1.308261 91.663565 1.121952 91.157417 6.996200 -0.296072 -26.720630 -0.132517 11.034056 70.030271 -0.735061 13.411055 7.454729 0.000000 -0.000000 0.000000 -3.144729 -0.693310 -30.263428 -2.280316 -10.022138 95.151096 1.530720 -4.074321 5.982829 0.000000 -0.000000 0.000000 -4.419847 1.944514 20.074813 4.671473 -2.842550 -1.727547 1.694954 -0.584798 -0.937400 -1.991832 -0.704213 11.359696 4.631975 -1.127539 -2.898810 -6.109677 -4.263116 8.244241 -57.950539 3.117470 -0.500769 -3.783955 -27.139422 11.641761 -9.352789 -6.245296 -16.930848 7.770716 5.820635 1.939922 63.394785 3.875418 7.969857 -15.333483 37.789188 7.145419 11.882933 -0.501416 -4.115001 
-0.020934 0.286296 1.315681 92.308725 1.072768 89.849267 7.074956 0.806929 -31.023667 -0.995289 12.038876 64.883947 -1.415939 11.285578 4.031422 0.000000 -0.000000 0.000000 -4.115261 -1.802143 -36.913089 -1.539605 -11.414686 92.040497 3.069441 -2.421396 1.778858 0.000000 -0.000000 0.000000 -3.766230 1.688131 25.985504 4.145424 -2.557604 -3.099923 1.953858 -0.772353 -0.582196 -1.786744 -0.177510 8.994026 4.893475 -1.921556 -2.082148 -7.582611 -4.667657 7.322452 -58.431463 1.921647 0.450758 -3.042909 -26.096768 10.136731 -8.190304 -6.727399 -17.356837 8.918787 6.607691 1.919201 63.252101 5.283137 8.244557 -15.490573 36.164176 5.943343 11.217756 -0.306341 -2.648940 
0.024347 0.287859 1.310983 93.015676 1.148702 89.631954 6.744487 2.005412 -34.662490 -1.552162 12.739317 57.513680 -3.003369 8.991498 4.221631 0.000000 -0.000000 0.000000 -4.563797 -3.122168 -41.437712 -1.169596 -12.050476 83.199832 5.265847 -0.687459 1.305283 0.000000 -0.000000 0.000000 -2.999782 1.673273 28.752820 3.893279 -2.470236 -3.461289 2.166229 -1.119696 -0.511517 -1.845499 0.113511 7.831759 5.021701 -2.681041 -1.129604 -9.165661 -4.698809 6.700383 -58.706951 0.572547 1.808115 -2.383642 -24.925186 8.831722 -8.067794 -6.955584 -16.484019 10.022577 6.795587 1.661779 62.576054 6.101895 9.002198 -15.078473 34.305843 5.081165 10.966887 -0.250290 -1.570939 
0.076031 0.288685 1.296789 93.370113 1.343478 89.477130 6.192777 2.838383 -35.444601 -2.636283 12.398495 47.242684 -5.940631 6.917156 7.895051 0.000000 -0.000000 0.000000 -4.286405 -3.907645 -41.974454 -1.434579 -12.239585 69.388767 8.166346 -0.208322 4.721945 0.000000 -0.000000 0.000000 -2.467748 1.766942 29.418051 3.719427 -2.491418 -3.323043 2.485266 -1.303825 -0.584105 -2.193211 -0.077825 8.787779 5.257177 -2.689976 -0.804687 -10.463273 -3.503778 6.500206 -59.167582 -0.681223 3.038747 -2.045728 -24.599530 8.083835 -7.669323 -7.323906 -16.283517 10.964000 5.889588 1.525214 62.079248 6.854529 9.893565 -14.309063 32.843177 4.935263 10.179465 -0.138441 -0.206814 
0.135266 0.289208 1.273372 93.356622 1.524408 88.604012 5.905667 2.983940 -32.249325 -4.258151 11.062650 34.667804 -9.951186 5.300402 13.364883 0.000000 -0.000000 0.000000 -3.870706 -4.243741 -38.196489 -2.125886 -13.589926 52.239419 11.175509 -0.721646 11.173475 0.000000 -0.000000 0.000000 -2.250794 1.866786 28.865570 3.344028 -2.631297 -3.067483 2.858617 -1.193052 -0.476170 -2.603946 -0.561356 11.502159 6.073162 -2.414557 -1.294266 -10.509864 -1.371698 6.927472 -60.370050 -1.078432 4.081368 -2.129845 -26.141708 7.988163 -7.258819 -8.657524 -18.045738 11.004451 4.235232 1.886195 62.503523 6.940291 10.693759 -13.548681 33.117416 5.755714 9.297768 0.123358 0.812709 
0.199917 0.290073 1.238511 92.925890 1.409010 87.479580 5.639161 2.330813 -26.852966 -5.068137 9.780272 21.965757 -12.626586 5.311705 18.279065 0.000000 -0.000000 0.000000 -3.632085 -4.589230 -32.534511 -1.041790 -14.993777 34.255244 14.088380 -1.020473 18.740998 0.000000 -0.000000 0.000000 -2.305821 2.195281 26.321406 2.761711 -2.743813 -1.898654 3.037713 -0.937966 -0.118175 -3.111767 -1.063020 14.948551 7.169544 -2.033709 -2.420754 -8.973880 1.168958 7.600713 -61.941580 -0.447396 5.091529 -3.026465 -29.342532 8.847510 -6.742733 -9.788031 -21.096483 9.729661 2.136851 2.783689 63.936243 6.313919 11.540615 -12.867096 35.341192 6.907377 8.756733 0.302402 0.858019 
0.266633 0.291270 1.190651 92.090772 1.253643 86.995914 5.322449 1.398177 -21.886356 -4.627599 8.733701 10.936320 -12.590169 6.488825 23.402994 0.000000 -0.000000 0.000000 -3.315505 -4.722869 -27.591150 1.149043 -14.209670 18.140787 16.003741 -0.998559 26.096475 0.000000 -0.000000 0.000000 -2.325845 2.494089 21.436690 2.276784 -2.583182 -0.082886 2.777652 -0.619369 0.639424 -3.870384 -1.518438 18.473744 7.965824 -1.612923 -3.347244 -6.350193 4.088332 8.831512 -62.992568 0.607314 6.056593 -5.265204 -34.187218 11.743950 -5.475530 -10.198913 -24.574817 7.572512 -0.384274 3.960792 65.538098 5.874914 12.513697 -11.739132 38.619321 8.839272 8.038488 0.520911 0.558335 
